<svg xmlns="http://www.w3.org/2000/svg" viewBox="0 0 345 344.91"><defs><style>.cls-1{fill:#6cc;}.cls-2{fill:#c06;}.cls-3{fill:#fc0;}.cls-4{fill:#fff;}</style></defs><title>Asset 1</title><g id="Layer_2" data-name="Layer 2"><g id="Layer_1-2" data-name="Layer 1"><path class="cls-1" d="M172.6,344.91a172,172,0,0,1-122-50.43,174.36,174.36,0,0,1-15-17.15,25.87,25.87,0,0,1,41.06-31.48,124,124,0,0,0,10.56,12,120.89,120.89,0,0,0,170.75,0,25.87,25.87,0,0,1,36.59,36.59A171.94,171.94,0,0,1,172.6,344.91Z"/><path class="cls-2" d="M283.07,72.72a25.85,25.85,0,0,1-36.3,4.52A120.76,120.76,0,0,0,76.65,245.86a25.87,25.87,0,1,1-41.07,31.48,172.5,172.5,0,0,1,243-240.93A25.87,25.87,0,0,1,283.07,72.72Z"/><path class="cls-3" d="M278,300.3a25.88,25.88,0,0,1-18.59-43.86A120.75,120.75,0,0,0,152.9,53.38a25.87,25.87,0,0,1-8.39-51.06,173.34,173.34,0,0,1,148,46.19c68.38,66.11,70.22,175.53,4.11,243.9A25.82,25.82,0,0,1,278,300.3Z"/><circle class="cls-1" cx="276.43" cy="276" r="25.87"/><path class="cls-4" d="M105.92,177.31l-6.4-3.89q-6-3.67-8.57-7.24A13.68,13.68,0,0,1,88.41,158a14.44,14.44,0,0,1,4.82-11.28q4.81-4.34,12.53-4.34a23.68,23.68,0,0,1,13.51,4.14v9.56Q112.91,150,105.59,150a11.35,11.35,0,0,0-6.78,1.91,5.79,5.79,0,0,0-2.66,4.88,7.52,7.52,0,0,0,2,4.95,24.54,24.54,0,0,0,6.28,4.85l6.44,3.81q10.76,6.42,10.76,16.36a15,15,0,0,1-4.74,11.5q-4.74,4.42-12.32,4.42a25.87,25.87,0,0,1-15.87-5.36V186.58q6.82,8.64,15.79,8.64A9.9,9.9,0,0,0,111,193a6.89,6.89,0,0,0,2.63-5.51Q113.67,182.13,105.92,177.31Z"/><path class="cls-4" d="M159.72,142.29q13.64,0,22.7,8.63a28.61,28.61,0,0,1,9.07,21.64,28.17,28.17,0,0,1-9.15,21.54q-9.15,8.53-23.08,8.53-13.31,0-22.16-8.53a28.41,28.41,0,0,1-8.86-21.37q0-13.18,8.92-21.81T159.72,142.29Zm.34,8q-10.11,0-16.6,6.31a21.53,21.53,0,0,0-6.5,16.13,21.1,21.1,0,0,0,6.52,15.83,24.2,24.2,0,0,0,32.75-.12,21.55,21.55,0,0,0,6.59-16.05,21,21,0,0,0-6.59-15.72A22.32,22.32,0,0,0,160.06,150.29Z"/><path class="cls-4" d="M248.59,143.13h8V202h-7.24L210,156.65V202H202.1V143.13h6.83l39.66,45.69Z"/></g></g></svg>